<svg id="e5eEroTAL4m1" xmlns="http://www.w3.org/2000/svg" xmlns:xlink="http://www.w3.org/1999/xlink" viewBox="0 0 232.41 281.88" shape-rendering="geometricPrecision" text-rendering="geometricPrecision"><style><![CDATA[#e5eEroTAL4m3_ts {animation: e5eEroTAL4m3_ts__ts 3000ms linear 2 normal forwards}@keyframes e5eEroTAL4m3_ts__ts { 0% {transform: translate(90.707815px,15.278035px) rotate(-11.47001deg) scale(-1,1);animation-timing-function: cubic-bezier(0.42,0,0.58,1)} 50% {transform: translate(90.707815px,15.278035px) rotate(-11.47001deg) scale(1,1);animation-timing-function: cubic-bezier(0.42,0,0.58,1)} 100% {transform: translate(90.707815px,15.278035px) rotate(-11.47001deg) scale(-1,1)}} #e5eEroTAL4m4_to {animation: e5eEroTAL4m4_to__to 3000ms linear 2 normal forwards}@keyframes e5eEroTAL4m4_to__to { 0% {transform: translate(116.200877px,140.937344px);animation-timing-function: step-end} 23.333333% {transform: translate(-71.741197px,140.937362px);animation-timing-function: step-end} 76.666667% {transform: translate(116.200877px,140.937344px)} 100% {transform: translate(116.200877px,140.937344px)}} #e5eEroTAL4m4_tr {animation: e5eEroTAL4m4_tr__tr 3000ms linear 2 normal forwards}@keyframes e5eEroTAL4m4_tr__tr { 0% {transform: rotate(-5.203599deg);animation-timing-function: cubic-bezier(0.42,0,1,1)} 23.333333% {transform: rotate(-10.104984deg)} 76.666667% {transform: rotate(-10.104984deg);animation-timing-function: cubic-bezier(0,0,0.58,1)} 100% {transform: rotate(-5.203599deg)}} #e5eEroTAL4m4_ts {animation: e5eEroTAL4m4_ts__ts 3000ms linear 2 normal forwards}@keyframes e5eEroTAL4m4_ts__ts { 0% {transform: scale(1,1);animation-timing-function: cubic-bezier(0.42,0,1,1)} 23.333333% {transform: scale(0.139895,1)} 76.666667% {transform: scale(0.113483,1);animation-timing-function: cubic-bezier(0,0,0.58,1)} 100% {transform: scale(1,1)}} #e5eEroTAL4m4 {animation: e5eEroTAL4m4_c_o 3000ms linear 2 normal forwards}@keyframes e5eEroTAL4m4_c_o { 0% {opacity: 1;animation-timing-function: step-end} 23.333333% {opacity: 0;animation-timing-function: step-start} 76.666667% {opacity: 0;animation-timing-function: step-start} 100% {opacity: 1}} #e5eEroTAL4m5_to {animation: e5eEroTAL4m5_to__to 3000ms linear 2 normal forwards}@keyframes e5eEroTAL4m5_to__to { 0% {transform: translate(116.200877px,140.937344px);animation-timing-function: step-end} 23.333333% {transform: translate(-71.741197px,140.937362px);animation-timing-function: step-end} 76.666667% {transform: translate(116.200877px,140.937344px)} 100% {transform: translate(116.200877px,140.937344px)}} #e5eEroTAL4m5_tr {animation: e5eEroTAL4m5_tr__tr 3000ms linear 2 normal forwards}@keyframes e5eEroTAL4m5_tr__tr { 0% {transform: rotate(-5.203599deg);animation-timing-function: cubic-bezier(0.42,0,1,1)} 23.333333% {transform: rotate(-10.104984deg)} 76.666667% {transform: rotate(-10.104984deg);animation-timing-function: cubic-bezier(0,0,0.58,1)} 100% {transform: rotate(-5.203599deg)}} #e5eEroTAL4m5_ts {animation: e5eEroTAL4m5_ts__ts 3000ms linear 2 normal forwards}@keyframes e5eEroTAL4m5_ts__ts { 0% {transform: scale(1,1);animation-timing-function: cubic-bezier(0.42,0,1,1)} 23.333333% {transform: scale(0.139895,1)} 76.666667% {transform: scale(0.113483,1);animation-timing-function: cubic-bezier(0,0,0.58,1)} 100% {transform: scale(1,1)}} #e5eEroTAL4m5 {animation: e5eEroTAL4m5_c_o 3000ms linear 2 normal forwards}@keyframes e5eEroTAL4m5_c_o { 0% {opacity: 1;animation-timing-function: step-end} 23.333333% {opacity: 0;animation-timing-function: step-start} 76.666667% {opacity: 0;animation-timing-function: step-start} 100% {opacity: 1}}]]></style><g id="e5eEroTAL4m2"><g id="e5eEroTAL4m3_ts" transform="translate(90.707815,15.278035) rotate(-11.47001) scale(-1,1)"><rect id="e5eEroTAL4m3" width="193.11" height="256.44" rx="21.89" ry="21.89" transform="translate(-96.554998,0)" fill="rgb(35,31,32)" stroke="none" stroke-width="1"/></g><g id="e5eEroTAL4m4_to" transform="translate(116.200877,140.937344)"><g id="e5eEroTAL4m4_tr" transform="rotate(-5.203599)"><g id="e5eEroTAL4m4_ts" transform="scale(1,1)"><path id="e5eEroTAL4m4" d="M138.5,142.93C138.5,143.93,137.86,145.2,136.57,146.8Q119.61,167,91.51,167Q62.77,167,44.9,147.37Q27.49,128.37,27.48,99.47Q27.48,71.47,44.53,51.93Q62.31,31.45,89.76,31.46Q119.61,31.46,136.57,49.79C137.593858,50.727402,138.246854,52.001453,138.41,53.38Q138.41,55.13,132.01,66.38Q125.61,77.63,123.94,79C123.457673,79.493924,122.789997,79.762445,122.1,79.74Q121.64,79.74,117.5,76.06C114.541453,73.361709,111.259751,71.040669,107.73,69.15C103.05929,66.733637,97.878733,65.468498,92.62,65.46Q79.08,65.45,71,75.59Q63.5,85,63.51,98.8Q63.51,112.8,70.97,122.29Q79.07,132.61,92.62,132.61C97.888664,132.630082,103.090689,131.432248,107.82,129.11C111.270015,127.368257,114.488379,125.201404,117.4,122.66Q121.4,119.16,121.92,119.16C122.647121,119.218231,123.315611,119.581541,123.76,120.16Q125.23,121.81,131.76,131.67Q138.51,141.92,138.5,142.93Z" transform="translate(-116.200877,-140.937337)" fill="rgb(255,255,255)" stroke="rgb(35,31,32)" stroke-width="6" stroke-miterlimit="10"/></g></g></g><g id="e5eEroTAL4m5_to" transform="translate(116.200877,140.937344)"><g id="e5eEroTAL4m5_tr" transform="rotate(-5.203599)"><g id="e5eEroTAL4m5_ts" transform="scale(1,1)"><path id="e5eEroTAL4m5" d="M204.89,223.06C204.89,224.06,204.25,225.33,202.96,226.93Q185.96,247.1,157.91,247.1Q129.16,247.1,111.29,227.48Q93.87,208.48,93.88,179.57Q93.88,151.57,110.88,132.03Q128.65,111.59,156.12,111.58Q185.97,111.58,202.92,129.91C203.948163,130.848261,204.60179,132.127096,204.76,133.51Q204.76,135.27,198.36,146.51Q191.96,157.75,190.3,159.13C189.810514,159.619334,189.141927,159.886769,188.45,159.87C188.15,159.87,186.61,158.64,183.85,156.18C180.888827,153.484975,177.607547,151.164233,174.08,149.27C169.416678,146.862615,164.248024,145.597872,159,145.58Q145.45,145.58,137.35,155.71Q129.89,165.11,129.89,178.93Q129.89,192.93,137.35,202.42Q145.47,212.74,159,212.74C164.268261,212.756482,169.469476,211.558833,174.2,209.24C177.64907,207.491396,180.869926,205.325127,183.79,202.79Q187.79,199.3,188.3,199.29C189.027121,199.348231,189.695611,199.711541,190.14,200.29Q191.61,201.95,198.14,211.81Q204.89,222.05,204.89,223.06Z" transform="translate(-116.200877,-140.937335)" fill="rgb(255,255,255)" stroke="rgb(35,31,32)" stroke-width="6" stroke-miterlimit="10"/></g></g></g></g></svg>